<?xml version="1.0" encoding="utf-8"?>
<!-- Generator: Adobe Illustrator 20.0.0, SVG Export Plug-In . SVG Version: 6.00 Build 0)  -->
<svg version="1.1" id="Layer_1" xmlns="http://www.w3.org/2000/svg" xmlns:xlink="http://www.w3.org/1999/xlink" x="0px" y="0px"
	 viewBox="0 0 541.2 176.2" style="enable-background:new 0 0 541.2 176.2;" xml:space="preserve">
<style type="text/css">
	.st0{fill:#EC670F;}
</style>
<g>
	<path class="st0" d="M22.7,145.4H0V4.5h54.6c32.5,0,49.9,16.4,49.9,42.8c0,26.4-17.4,42.8-49.9,42.8H22.7V145.4L22.7,145.4z
		 M22.7,68.6H54c18.5,0,26.9-6.7,26.9-21.3S72.6,25.9,54,25.9H22.7V68.6L22.7,68.6z"/>
	<path class="st0" d="M184.1,145.4v-11.6c-6.7,8.6-16.5,14.1-30.3,14.1c-27,0-48.2-21.2-48.2-50.7c0-29.5,21.2-50.7,48.2-50.7
		c13.8,0,23.5,5.6,30.3,14.2V49h21v96.4H184.1L184.1,145.4z M127.2,97.2c0,16.9,11,30.9,29.1,30.9c17.3,0,29.1-13.3,29.1-30.9
		c0-17.6-11.8-30.9-29.1-30.9C138.2,66.3,127.2,80.3,127.2,97.2L127.2,97.2z"/>
	<path class="st0" d="M302.8,61.8l-13.5,14.4c-6.8-6.4-13.9-10-23.1-10c-16.2,0-28.5,12.7-28.5,30.9c0,18.2,12.3,30.9,28.5,30.9
		c9.3,0,17.5-4.3,23.6-10.1l13,14.5c-8.9,10.2-21.5,15.4-36,15.4c-30.6,0-50.7-21.8-50.7-50.7c0-28.9,20.1-50.7,50.7-50.7
		C281.3,46.4,294.3,51.7,302.8,61.8L302.8,61.8z"/>
	<polyline class="st0" points="332.4,104.7 332.4,145.4 311.3,145.4 311.3,0.5 332.4,0 332.4,85.1 	"/>
	<polygon class="st0" points="428,145.4 428,68.1 408.8,68.1 408.8,49 428,49 428,19.8 449.1,19.8 449.1,49 468.4,49 468.4,68.1 
		449.1,68.1 449.1,145.4 428,145.4 	"/>
	<polygon class="st0" points="336.4,94.4 344.2,85.6 376,49 402.5,49 362.1,94.3 402.9,145.4 376.2,145.4 344.1,104.7 336.4,94.4 	
		"/>
	<polygon class="st0" points="533.5,104.7 501.4,145.4 474.7,145.4 515.5,94.3 475.1,49 501.6,49 533.4,85.6 541.2,94.4 
		533.5,104.7 	"/>
	<polygon class="st0" points="541.2,176.2 0,176.2 0,162.2 541.2,162.2 541.2,176.2 	"/>
</g>
</svg>
